<?xml version="1.0" encoding="UTF-8" standalone="no"?>
<svg
   width="690"
   height="287"
   version="1.1"
   id="svg108"
   sodipodi:docname="logo_stadt-alzenau.svg"
   inkscape:version="1.2.1 (9c6d41e410, 2022-07-14)"
   xmlns:inkscape="http://www.inkscape.org/namespaces/inkscape"
   xmlns:sodipodi="http://sodipodi.sourceforge.net/DTD/sodipodi-0.dtd"
   xmlns="http://www.w3.org/2000/svg"
   xmlns:svg="http://www.w3.org/2000/svg">
  <defs
     id="defs112" />
  <sodipodi:namedview
     id="namedview110"
     pagecolor="#ffffff"
     bordercolor="#666666"
     borderopacity="1.0"
     inkscape:showpageshadow="2"
     inkscape:pageopacity="0.0"
     inkscape:pagecheckerboard="0"
     inkscape:deskcolor="#d1d1d1"
     showgrid="false"
     inkscape:zoom="4.6523054"
     inkscape:cx="93.502029"
     inkscape:cy="190.33574"
     inkscape:window-width="1920"
     inkscape:window-height="1015"
     inkscape:window-x="0"
     inkscape:window-y="0"
     inkscape:window-maximized="1"
     inkscape:current-layer="svg108" />
  <path
     style="fill:none;stroke:none"
     d="M0 0L0 287L690 287L690 0L0 0z"
     id="path2" />
  <path
     style="fill:#bec0c2; stroke:none;"
     d="M380 3L379 5L380 3z"
     id="path4" />
  <path
     id="path6"
     style="fill:#c5c7c9; stroke:none;"
     d="M 380 4 L 377 32 L 370 29 C 373.182 37.746091 369.683 43.110708 366 51 L 362 49 C 360.123 53.455096 359.896 56.602704 362 61 L 365 59 L 368 68 C 365.828 68.746099 364.29387 69.577189 362.42188 70.929688 C 349.39889 80.334878 360.77323 85.916812 358.49023 98 C 357.45724 103.46499 356.41699 116.807 349 115 L 341.64648 146 L 317 174 L 342.39062 157.94531 L 357.64453 124 L 367.21875 109.08984 L 363.32227 85.015625 L 377 66 L 378 66 C 381.502 80.828085 376.87491 96.494261 382.87891 110.99805 C 385.0879 116.33504 391.5445 116.79035 393.6875 121.27734 C 395.0825 124.19834 393.55519 127.89405 394.74219 130.99805 C 397.22719 137.49404 404.76401 140.519 411 142 L 399.34961 130.78906 L 399 118 L 400 118 L 403 121 C 401.013 115.95401 398.26299 113.375 393 112 L 393 113 L 396 114 L 396 115 C 390.45001 113.428 384.732 106.77899 388 101 L 389 96 L 390 92 L 389 86 L 394 86 L 393 73 C 387.78401 67.237106 396.26417 61.116393 394.57617 54 C 393.06417 47.625706 383.93123 45.644051 383.24023 39.910156 C 382.70423 35.465761 387.47236 31.581895 387.44336 27 C 387.41736 22.997604 383.85961 20.550096 382.59961 17 C 381.06761 12.688504 382.237 8.2071458 380 4 z M 374 45 C 379.21399 51.787493 382.471 54.419509 379 63 L 377 63 C 371.59001 55.890207 368.67501 53.475292 374 45 z " />
  <path
     style="fill:#bec0c2; stroke:none;"
     d="M379 7L380 8L379 7M382 18L383 19L382 18M387 24L388 25L387 24M370 28L371 29L370 28M387 28L388 29L387 28M372 29L373 30L372 29M386 31L387 32L386 31M385 33L386 34L385 33M371 38L372 39L371 38M382 38L383 39L382 38M370 42L371 43L370 42M383 42L384 43L383 42M385 43L386 44L385 43M369 44L370 45L369 44z"
     id="path8" />
  <path
     style="fill:#bec0c2; stroke:none;"
     d="M387 45L388 46L387 45M368 46L369 47L368 46M372 47L373 48L372 47M375 47L376 48L375 47M366 49L367 50L366 49M392 49L393 50L392 49M365 50L366 51L365 50M377 50L378 51L377 50M370 51L371 52L370 51M360 52L361 53L360 52M380 52L381 53L380 52M394 52L395 53L394 52M381 54L382 55L381 54M395.333 55.6667L395.667 56.3333L395.333 55.6667M363 57L364 58L363 57M371 57L372 58L371 57M381 57L382 58L381 57M360 58L361 59L360 58M364 59L365 60L364 59M374 59L375 60L374 59M380 59L381 60L380 59M361 60L362 61L361 60M363 60L364 61L363 60M394 60L395 61L394 60M378 63L379 64L378 63M366 64L367 65L366 64M392 64L393 65L392 64M377 66L378 67L377 66M367 67L368 68L367 67M378 68L379 69L378 68M463 68L464 69L463 68M363 69L364 70L363 69z"
     id="path12" />
  <path
     id="path14"
     style="fill:#c5c7c9; stroke:none;"
     d="M 463 69 C 461.242 78.471091 461.35501 84.945104 471 89 C 467.627 94.616494 468.52101 101.851 475 104 L 472 107 L 454 108 L 457 94 L 456 94 L 449.39258 108.39648 L 457 109.98828 L 480 109 L 478 115 L 501 85 L 501 87 L 507 80 L 514 106 C 523.52199 111.75999 530.966 117.19901 531 129 L 534 129 C 535.599 149.25998 532.84101 172.61202 539 192 L 540 192 L 540 159 L 578 161 L 578 162 L 575 163 L 575 164 C 578.755 166.128 578.695 168.813 575 171 L 577 194 L 581 194 L 582 191 L 585 193 L 581 189 L 584 181 L 590 182 L 587 178 L 591 174 C 591.668 161.72901 595.94998 152.998 579 155 C 579.002 140.71201 578.85602 119.86001 599 128 L 604.95508 143 L 607 179 L 605 178 L 605 201 L 608 201 C 608.002 184.95902 611 169.14198 611 153 C 611 147.39501 612.08656 140.37274 609.85156 135.09375 C 604.70457 122.94176 598.25799 120.06516 586 120.91016 C 582.173 121.17416 577.74403 120.28544 575.45703 124.14844 C 571.29804 131.17243 575 145.93401 575 154 L 540 158 C 541.092 149.35801 543.70308 137.53699 541.58008 129 C 540.12808 123.15901 534.91454 118.06499 531.81055 113 C 526.12455 103.72301 522.1444 93.497517 515.19141 85.015625 C 503.35942 70.582839 482.65999 69.606518 475 88 L 466 83 L 463 69 z M 484.04492 81.322266 L 497 82 L 483 105 C 477.50901 101.431 476.508 95.221694 476 89 L 484.04492 81.322266 z " />
  <path
     style="fill:#bec0c2; stroke:none;"
     d="M362 70L363 71L362 70M375 70L376 71L375 70M462 71L463 72L462 71M464 71L465 72L464 71M361 72L362 73L361 72M357 73L358 74L357 73M373 73L374 74L373 73M380 73L381 74L380 73M490 73L491 74L490 73M492 73L493 74L492 73M356 74L357 75L356 74M372 74L373 75L372 74M392 74L393 75L392 74M371 75L372 76L371 75M380 75L381 76L380 75M483 75L484 76L483 75M355 76L356 77L355 76M370 76L371 77L370 76M481 76L482 77L481 76M369 77L370 78L369 77M393 77L394 78L393 77M465 77L466 78L465 77M480 77L481 78L480 77M509 79L510 80L509 79M365 80L366 81L365 80M478 80L479 81L478 80z"
     id="path16" />
  <path
     style="fill:#bec0c2; stroke:none;"
     d="M506 80L507 81L506 80M488 81L489 82L488 81M363 82L364 83L363 82M467 82L468 83L467 82M477 82L478 83L477 82M505 82L506 83L505 82M462 83L463 84L462 83M469 83L470 84L469 83M496 83L497 84L496 83M501.333 83.6667L501.667 84.3333L501.333 83.6667M504 83L505 84L504 83M470 84L471 85L470 84M514 84L515 85L514 84M479 85L480 86L479 85M515 85L516 86L515 85M393 86L394 87L393 86M494 86L495 87L494 86M516 86L517 87L516 86M356 87L357 88L356 87M498 87L499 88L498 87M500.667 87.3333L501.333 87.6667L500.667 87.3333M508 87L509 88L508 87M478 88L479 89L478 88M497 88L498 89L497 88M509 88L510 89L509 88M475 89L476 90L475 89M510 89L511 90L510 89M518 89L519 90L518 89M357 90L358 91L357 90M491 90L492 91L491 90M496 90L497 91L496 90M388 91L389 92L388 91M490 91L491 92L490 91M469 92L470 93L469 92M520 92L521 93L520 92M489 93L490 94L489 93M494 93L495 94L494 93M388 94L389 95L388 94M455 94L456 95L455 94M521 94L522 95L521 94M364 96L365 97L364 96M454 96L455 97L454 96M469 96L470 97L469 96M486 98L487 99L486 98M491 98L492 99L491 98M358 99L359 100L358 99M455 99L456 100L455 99M524 99L525 100L524 99M357 100L358 101L357 100M365 100L366 101L365 100M380 100L381 101L380 100M469 101L470 102L469 101M478 101L479 102L478 101M489 101L490 102L489 101M514.333 101.667L514.667 102.333L514.333 101.667M525 101L526 102L525 101M454 102L455 103L454 102M356 103L357 104L356 103M480 103L481 104L480 103M483 103L484 104L483 103M488 103L489 104L488 103M526 103L527 104L526 103M449 104L450 105L449 104M474 104L475 105L474 104M513 104L514 105L513 104M471 105L470 107L471 105M527 105L528 106L527 105M448 106L449 107L448 106M467.667 106.333L468.333 106.667L467.667 106.333z"
     id="path20" />
  <path
     style="fill:#010101; stroke:none;"
     d="M471 106L472 107L471 106z"
     id="path22" />
  <path
     style="fill:#bec0c2; stroke:none;"
     d="M486 106L487 107L486 106M515 106L516 107L515 106M387 107L388 108L387 107M459 107L460 108L459 107M516 107L517 108L516 107M528 107L529 108L528 107M448 108L449 109L448 108M367 109L368 110L367 109M462.667 109.333L463.333 109.667L462.667 109.333M471 109L472 110L471 109M479 109L480 110L479 109M483 109L484 110L483 109M529 109L530 110L529 109M382 110L383 111L382 110M482 110L483 111L482 110M521 110L522 111L521 110M366 111L367 112L366 111M481 111L482 112L481 111M522 111L523 112L522 111M392 112L393 113L392 112M395 112L396 113L395 112z"
     id="path24" />
  <path
     style="fill:#c5c7c9; stroke:none;"
     d="M474 112C471.959 127.803 469.474 142.993 470.042 159.004C470.234 164.383 467.637 172.239 473 175C471.187 181.223 469.866 192.931 476 197L476 167L478 169L479 169C481.541 164.03 479.679 159.087 478 154C480.778 151.572 480.016 147.51 479.999 144C479.955 134.778 479.466 119.672 474 112z"
     id="path26" />
  <path
     style="fill:#bec0c2; stroke:none;"
     d="M393 113L392 115L393 113z"
     id="path28" />
  <path
     style="fill:#c5c7c9; stroke:none;"
     d="M458 113L455 137L455 157L436 146L439 144L430 140C430.677 137.198 427.098 120.663 424.694 119.89C418.997 118.061 416.539 130.4 416 134L419 133C421.044 148.73 446.436 164.566 462 161L462 160L458 159C463.112 147.303 466.099 124.367 458 113z"
     id="path30" />
  <path
     style="fill:#bec0c2; stroke:none;"
     d="M475 113L476 114L475 113M478 113L479 114L478 113M349 114L350 115L349 114z"
     id="path32" />
  <path
     style="fill:#010101; stroke:none;"
     d="M393.667 114.333L394.333 114.667L393.667 114.333z"
     id="path34" />
  <path
     style="fill:#bec0c2; stroke:none;"
     d="M395 114L396 115L395 114M399 114L400 115L399 114M459 114L460 115L459 114M479 114L480 115L479 114M526 114L527 115L526 114M532 114L533 115L532 114M348 115L349 116L348 115M350 115L351 116L350 115M363 115L364 116L363 115M400 115L401 116L400 115M450 115L451 116L450 115z"
     id="path36" />
  <path
     style="fill:#c5c7c9; stroke:none;"
     d="M442 122L442 120L433 129L454 127L450 123L455 115L442 122z"
     id="path38" />
  <path
     style="fill:#bec0c2; stroke:none;"
     d="M473 115L474 116L473 115M352 116L353 117L352 116M362 116L363 117L362 116M448 116L449 117L448 116M447 117L448 118L447 117M472 117L473 118L472 117M476 117L477 118L476 117M534 117L535 118L534 117M390 118L391 119L390 118M399 118L400 119L399 118M446 118L447 119L446 118M460 118L461 119L460 118M529 118L530 119L529 118M393 119L394 120L393 119M402 119L403 120L402 119M421 119L422 120L421 119M425 119L426 120L425 119M394 120L395 121L394 120M420 120L421 121L420 120M452 120L453 121L452 120M456 120L457 121L456 120M530 120L531 121L530 120M536 120L537 121L536 120M589 120L590 121L589 120M599 120L600 121L599 120M439 121L440 122L439 121M537 121L538 122L537 121M394 122L395 123L394 122M419 122L420 123L419 122M438 122L439 123L438 122M441 122L442 123L441 122M471.333 122.667L471.667 123.333L471.333 122.667M477 122L478 123L477 122M357 123L358 124L357 123M399 123L400 124L399 123M437 123L438 124L437 123M461 123L462 124L461 123M575 123L576 124L575 123M602 123L603 124L602 123M426 124L427 125L426 124M453 124L454 125L453 124M539 124L540 125L539 124M593 125L594 126L593 125M434 126L435 127L434 126M455 126L456 127L455 126M469.333 126.667L469.667 127.333L469.333 126.667M588 126L589 127L588 126M595 126L596 127L595 126M433 127L434 128L433 127M541 127L542 128L541 127M597 127L598 128L597 127M447 128L448 129L447 128M478 128L479 129L478 128M598 128L599 129L598 128M433 129L434 130L433 129M533 129L534 130L533 129M398 130L399 131L398 130M416 130L417 131L416 130M456 130L457 131L456 130M598 130L599 131L598 130M394 131L395 132L394 131M428 131L429 132L428 131M580 131L581 132L580 131M607 131L608 132L607 131M354 132L355 133L354 132M399 132L400 133L399 132M395 133L396 134L395 133M396 134L397 135L396 134M416 134L417 135L416 134M353 135L354 136L353 135M397 135L398 136L397 135M404 135L405 136L404 135M398 136L399 137L398 136M419 136L420 137L419 136M456 136L457 137L456 136M479 136L480 137L479 136M602 136L603 137L602 136M610 136L611 137L610 136M352 137L353 138L352 137M401 138L402 139L401 138M408 138L409 139L408 138M455 138L456 139L455 138M403 139L404 140L403 139M409 139L410 140L409 139M430 139L431 140L430 139M604 139L605 140L604 139M344 140L345 141L344 140M541 140L542 141L541 140M411 141L412 142L411 141M350 142L351 143L350 142M412 142L413 143L412 142z"
     id="path40" />
  <path
     style="fill:#c5c7c9; stroke:none;"
     d="M413 142L396 150L397 147L391 151L389 149L388 149C382.899 153.346 375.912 156.206 374 163L383 164C387.52 155.613 414.994 156.969 413 142z"
     id="path42" />
  <path
     style="fill:#bec0c2; stroke:none;"
     d="M471 142L472 143L471 142M410 143L411 144L410 143M438 143L439 144L438 143M349 144L350 145L349 144M436.333 145.667L436.667 146.333L436.333 145.667M405 146L406 147L405 146M605 146L606 147L605 146M393 147L394 148L393 147M403 147L404 148L403 147M469 147L470 148L469 147M340 148L341 149L340 148M391 148L392 149L391 148M396 148L396 150L398 150L396 148M439 148L440 149L439 148M339 149L340 150L339 149M399 149L400 150L399 149M535 149L536 150L535 149M386 150L387 151L386 150M390 150L391 151L390 150M440 150L441 151L440 150M406 151L407 152L406 151M431 151L432 152L431 151M441 151L442 152L441 151M405 152L406 153L405 152M442 152L443 153L442 152M455 152L456 153L455 152M470 152L471 153L470 152M480.333 152.667L480.667 153.333L480.333 152.667M383 153L384 154L383 153M444 153L445 154L444 153M461 153L462 154L461 153M344 154L345 155L344 154M436.667 154.333L437.333 154.667L436.667 154.333M540 154L541 155L540 154M562 154L563 155L562 154M581.667 154.333L582.333 154.667L581.667 154.333M586 154L587 155L586 154M459 155L460 156L459 155M343 156L344 157L343 156M377 156L378 157L377 156M397 156L398 157L397 156M547 156L548 157L547 156M592 156L593 157L592 156M376 157L377 158L376 157M445 157L446 158L445 157M458 157L459 158L458 157M478 157L479 158L478 157M542 157L543 158L542 157M375 158L376 159L375 158M393 158L394 159L393 158M447 158L448 159L447 158M329 159L330 160L329 159M341 159L342 160L341 159M374 159L375 160L374 159M386.667 159.333L387.333 159.667L386.667 159.333M449 159L450 160L449 159M460 159L461 160L460 159M544 159L545 160L544 159M562 159L563 160L562 159M328 160L329 161L328 160M340 160L341 161L340 160M384 160L385 161L384 160M389 160L390 161L389 160M391.667 160.333L392.333 160.667L391.667 160.333M452 160L453 161L452 160M479 160L480 161L479 160M552 160L553 161L552 160M554 160L555 161L554 160M576 160L577 161L576 160M327 161L328 162L327 161M339 161L340 162L339 161M460 161L461 162L460 161M593 161L594 162L593 161M326 162L327 163L326 162M338 162L339 163L338 162M455 162L456 163L455 162M480 162L481 163L480 162M575.667 162.333L576.333 162.667L575.667 162.333M375 163L375 164L378 164L375 163M379.667 163.333L380.333 163.667L379.667 163.333M381.667 164.333L382.333 164.667L381.667 164.333M577 164L578 165L577 164M330 165L331 166L330 165M417.667 165.333L418.333 165.667L417.667 165.333M393 166L394 167L393 166z"
     id="path44" />
  <path
     style="fill:#c5c7c9; stroke:none;"
     d="M377 169L377 171L396 175L397 175L411 172C409.15 175.555 409.184 191.716 416.397 185.342C420.099 182.07 417.871 170.74 419 166L377 169z"
     id="path46" />
  <path
     style="fill:#bec0c2; stroke:none;"
     d="M443 166L444 167L443 166z"
     id="path48" />
  <path
     style="fill:#c5c7c9; stroke:none;"
     d="M424 171L450 172C449.897 176.828 444.74 196.115 452.129 197.623C460.542 199.342 458.75 172.589 455.821 168.448C452.735 164.085 443.369 166.749 439 166.961C434.082 167.2 427.227 166.756 424 171z"
     id="path50" />
  <path
     style="fill:#bec0c2; stroke:none;"
     d="M449 166L450 167L449 166M454 166L455 167L454 166M327 167L328 168L327 167M385 167L386 168L385 167M431 167L432 168L431 167M476.333 167.667L476.667 168.333L476.333 167.667M320 168L321 169L320 168M380 168L381 169L380 168M426 168L427 169L426 168M456 168L457 169L456 168M469 168L470 169L469 168M592 168L593 169L592 168M319 169L320 170L319 169M324 169L325 170L324 169M376.333 169.667L376.667 170.333L376.333 169.667M423.333 169.667L423.667 170.333L423.333 169.667M478 169L479 170L478 169M540 169L541 170L540 169M36 170L37 171L36 170z"
     id="path52" />
  <path
     id="path54"
     style="fill:#9d9f9f; stroke:none;"
     d="M 42 170 C 34.221908 170.606 36 177.89201 36 184 L 30 184 L 30 189 L 36 189 C 36 197.82699 33.98629 209.52809 36.804688 217.95508 C 38.835285 224.02707 46.876601 224.73199 48 218 C 38.09781 215.935 42 196.99199 42 189 C 50.364392 188.901 50.364392 184.099 42 184 L 42 170 z M 135 170 L 135 189 C 131.958 186.507 128.906 184.4263 125 183.5293 C 94.84253 176.6103 95.09513 229.54174 125 222.46875 C 128.829 221.56275 131.926 219.337 135 217 L 135 222 L 141 222 L 141 170 L 135 170 z M 155 170 L 155 184 L 148 184 L 148 189 L 155 189 C 155 197.90899 153.05936 209.36148 155.31836 217.98047 C 156.95836 224.23746 164.935 224.37999 166 218 C 156.09801 215.935 160 196.99199 160 189 L 168 189 L 168 184 L 160 184 L 160 170 L 155 170 z M 121.75586 188.88867 C 136.09821 188.93327 140.63552 211.82008 125 216.87695 C 108.27902 222.28395 100.16097 194.95134 117.00195 189.65234 C 118.68401 189.12303 120.27217 188.88406 121.75586 188.88867 z " />
  <path
     style="fill:#9d0d15; stroke:none;"
     d="M221 170L221 222L226 222L226 170L221 170z"
     id="path56" />
  <path
     style="fill:#bec0c2; stroke:none;"
     d="M318 170L319 171L318 170M577 170L578 171L577 170M321 171L322 172L321 171M428 171L429 172L428 171M476 171L477 172L476 171M574.333 171.667L574.667 172.333L574.333 171.667M590 171L591 172L590 171M610.333 171.667L610.667 172.333L610.333 171.667M389 172L390 173L389 172M402 172L403 173L402 172M407 172L408 173L407 172M435 172L436 173L435 172M445.667 172.333L446.333 172.667L445.667 172.333M475 172L476 173L475 172M395.333 173.667L395.667 174.333L395.333 173.667M410 173L411 174L410 173M444 173L445 174L444 173M469 173L470 174L469 173M316.667 174.333L317.333 174.667L316.667 174.333M397 174L398 175L397 174M441 174L442 175L441 174M470 174L471 175L470 174M475 174L476 175L475 174M590 174L591 175L590 174M408 175L409 176L408 175M472 175L473 176L472 175M541 175L542 176L541 175M588 175L589 176L588 175M610 175L611 176L610 175M418 176L419 177L418 176M587 177L588 178L587 177M449 178L450 179L449 178M589 178L590 179L589 178M606 178L607 179L606 178z"
     id="path58" />
  <path
     style="fill:#c5c7c9; stroke:none;"
     d="M508 196C497.103 189.807 481.757 198.948 478 210C486.263 209.8 490.502 204.461 495 198L496 198L511 208C512.238 205.512 513.728 203.329 515.245 200.999C526.85 183.173 534.921 201.925 544 212C555.709 209.226 572.359 201.867 572 221L580 215L581 215L582 218L583 218L587 208L586 208L583 211L592 205L613 221C612.168 211.829 598.329 192.219 587.093 196.746C582.615 198.551 581.087 204.102 579 208C574.105 198.764 552.766 187.101 547 201C536.609 190.602 525.622 171.367 512.336 188C510.358 190.476 509.095 193.056 508 196z"
     id="path60" />
  <path
     style="fill:#bec0c2; stroke:none;"
     d="M525 180L526 181L525 180M448 181L449 182L448 181M575 181L576 182L575 181M587 181L588 182L587 181M517 182L518 183L517 182M528 182L529 183L528 182M536 182L537 183L536 182M609 182L610 183L609 182z"
     id="path62" />
  <path
     style="fill:#9d9f9f; stroke:none;"
     d="M4 214L2 217L2 218C10.7471 225.055 31.458 221.939 23.821 207.015C21.5417 202.56 8.14706 197.655 10.2562 192.109C12.2998 186.735 20.7988 191.568 25 189C18.3746 181.062 1.94837 181.451 4.23225 195C5.6412 203.358 15.6014 203.224 18.4931 209.934C20.4351 214.441 14.7488 217.539 11.0015 216.552C8.58571 215.915 6.44657 214.612 4 214z"
     id="path64" />
  <path
     style="fill:#bec0c2; stroke:none;"
     d="M17 183L18 184L17 183M69 183L70 184L69 183z"
     id="path66" />
  <path
     id="path68"
     style="fill:#9d9f9f; stroke:none;"
     d="M 72.166016 182.66797 C 47.566402 182.5875 49.844903 231.31449 79 222.19531 C 82.658696 221.05131 85.280503 218.572 88 216 L 88 222 L 93 222 L 93 184 L 88 184 L 88 190 C 85.280503 187.428 82.658696 184.94869 79 183.80469 C 76.529229 183.03188 74.250729 182.67479 72.166016 182.66797 z M 74.404297 188.69922 C 88.131673 188.8128 93.671689 211.2764 78 216.86328 C 61.880916 222.60928 52.751616 195.98118 69 189.74219 C 70.90869 189.00938 72.718479 188.68527 74.404297 188.69922 z " />
  <path
     style="fill:#bec0c2; stroke:none;"
     d="M116 183L117 184L116 183M125 183L126 184L125 183z"
     id="path70" />
  <path
     id="path72"
     style="fill:#9d0d15; stroke:none;"
     d="M 283.23828 182.3418 C 266.5057 183.36714 250.98523 211.44231 274.00195 221.4668 C 277.43395 222.9618 281.303 223.20425 285 222.90625 C 290.81599 222.43625 306.67799 211.551 295 209 C 286.77401 220.57099 271.733 219.08998 269 204 L 302 204 C 301.676 199.933 301.15519 195.5609 298.99219 192.00391 C 294.52794 184.66441 288.81581 182.00002 283.23828 182.3418 z M 329.74414 182.47656 C 327.54145 182.4522 324.97983 182.99206 322.00195 184.22656 C 319.31796 185.33856 317.19 187.151 315 189 L 315 184 L 310 184 L 310 222 L 315 222 C 315 213.48001 313.25786 202.59562 318.00586 195.01562 C 321.54286 189.37163 329.30849 186.17062 334.14648 192.22461 C 339.74648 199.2316 337 213.55701 337 222 L 343 222 C 343 210.51126 345.16295 182.64708 329.74414 182.47656 z M 190.56445 182.86914 C 165.23873 183.62 167.66597 228.76781 196 222.60938 C 199.89 221.76338 202.995 219.469 206 217 L 206 222 L 212 222 L 212 184 L 206 184 L 206 189 C 202.98 186.451 199.985 184.10784 196 183.33984 C 194.06438 182.96691 192.25283 182.81908 190.56445 182.86914 z M 368.57031 182.87109 C 343.22842 182.81742 345.03784 229.15132 374 222.4707 C 377.907 221.5687 380.956 219.494 384 217 L 384 222 L 389 222 L 389 184 L 384 184 L 384 189 C 380.956 186.506 377.907 184.4313 374 183.5293 C 372.06919 183.08392 370.25977 182.87467 368.57031 182.87109 z M 369.67578 188.71484 C 383.93222 188.02021 389.94441 211.17838 373.99805 216.86328 C 357.72606 222.66428 348.78097 195.97018 365.00195 189.74219 C 366.63798 189.11406 368.20098 188.7867 369.67578 188.71484 z M 192.84961 188.92383 C 207.42201 189.36879 211.47198 212.86435 195 217.19531 C 178.59802 221.50831 171.39002 194.33826 188 189.57227 C 189.72162 189.0782 191.34212 188.8778 192.84961 188.92383 z M 282.15625 189.06055 C 287.58687 189.23717 293.1315 192.72751 295 199 L 270 199 C 271.409 192.02101 276.72563 188.88392 282.15625 189.06055 z " />
  <path
     style="fill:#bec0c2; stroke:none;"
     d="M448 183L449 184L448 183M476 183L477 184L476 183M529 183L530 184L529 183M584 183L585 184L584 183M8 184L9 185L8 184M49 184L50 185L49 184M113 184L114 185L113 184M128 184L129 185L128 184z"
     id="path74" />
  <path
     style="fill:#9d0d15; stroke:none;"
     d="M232 184L232 189L250 189L230 222L259 222L259 217L240 217L260 184L232 184M399 184C399 197.208 395.077 231.204 418.998 221.519C421.681 220.432 423.786 218.814 426 217L426 222L432 222L432 184L426 184C426 191.995 427.858 202.78 423.721 209.985C420.15 216.205 411.655 219.538 406.703 212.891C401.443 205.832 404 192.326 404 184L399 184z"
     id="path76" />
  <path
     style="fill:#bec0c2; stroke:none;"
     d="M576 184L577 185L576 184M21 185L22 186L21 185M111 185L112 186L111 185M130 185L131 186L130 185M411 185L412 186L411 185M514 185L515 186L514 185M62 186L63 187L62 186M84 186L85 187L84 186M513 186L514 187L513 186M540 186L541 187L540 186M604 186L605 187L604 186M61 187L62 188L61 187M85 187L86 188L85 187M108 187L109 188L108 187M414 187L415 188L414 187M448 187L449 188L448 187M537 187L538 188L537 187M13.6667 188.333L14.3333 188.667L13.6667 188.333M49 188L50 189L49 188M86 188L87 189L86 188M107 188L108 189L107 188M476 188L477 189L476 188M582.667 188.333L583.333 188.667L582.667 188.333M17 189L18 190L17 189z"
     id="path78" />
  <path
     style="fill:#bec0c2; stroke:none;"
     d="M87 189L88 190L87 189M106 189L107 190L106 189M116 189L117 190L116 189z"
     id="path82" />
  <path
     style="fill:#bec0c2; stroke:none;"
     d="M126 189L127 190L126 189z"
     id="path86" />
  <path
     style="fill:#bec0c2; stroke:none;"
     d="M584 189L585 190L584 189M58 190L59 191L58 190M114 190L115 191L114 190M128 190L129 191L128 190M510 190L511 191L510 190M538 190L539 191L538 190M608 190L609 191L608 190M20 191L21 192L20 191M22 191L23 192L22 191M57 191L58 192L57 191M65 191L66 192L65 191M82 191L83 192L82 191z"
     id="path90" />
  <path
     style="fill:#010101; stroke:none;"
     d="M538 191L539 192L538 191z"
     id="path92" />
  <path
     style="fill:#bec0c2; stroke:none;"
     d="M582 191L583 192L582 191M585.333 191.667L585.667 192.333L585.333 191.667M64 192L65 193L64 192M83 192L84 193L83 192M524 192L525 193L524 192M528 192L529 193L528 192M538 192L540 194L540 192L538 192M581 192L582 193L581 192M56 193L57 194L56 193M63 193L64 194L63 193M84 193L85 194L84 193M500 193L501 194L500 193M502 193L503 194L502 193M520 193L521 194L520 193M576 193L577 194L576 193M85 194L86 195L85 194M495 194L496 195L495 194M508 194L509 195L508 194M518 194L519 195L518 194M530 194L531 195L530 194M540 194L541 195L540 194M556 194L557 195L556 194M579.667 194.333L580.333 194.667L579.667 194.333M55 195L56 196L55 195M109 195L110 196L109 195M133 195L134 196L133 195M473 195L474 196L473 195M492 195L493 196L492 195M507 195L508 196L507 195M531 195L532 196L531 195M541 195L542 196L541 195M550 195L551 196L550 195M561 195L562 196L561 195M10 196L11 197L10 196M61 196L62 197L61 196M86 196L87 197L86 196M102 196L103 197L102 196M490 196L491 197L490 196M532 196L533 197L532 196M564 196L565 197L564 196M586 196L587 197L586 196M603 196L604 197L603 196M4 197L5 198L4 197M134 197L135 198L134 197M474.667 197.333L475.333 197.667L474.667 197.333M517 197L518 198L517 197M13 198L14 199L13 198M54 198L55 199L54 198M455 198L456 199L455 198M487 198L488 199L487 198M598 198L599 199L598 198M5 199L6 200L5 199M534 199L535 200L534 199M547 199L548 200L547 199M570 199L571 200L570 199M583 199L584 200L583 199M600 199L601 200L600 199M6 200L7 201L6 200M107 200L108 201L107 200M484 200L485 201L484 200M498 200L499 201L498 200M515 200L516 201L515 200M606 200L607 201L606 200M7 201L8 202L7 201M18 201L19 202L18 201M483 201L484 202L483 201M573 201L574 202L573 201M600 201L601 202L600 201M605 201L606 202L605 201M482 202L483 203L482 202M501 202L502 203L501 202M536 202L537 203L536 202M10 203L11 204L10 203M21 203L22 204L21 203M481 203L482 204L481 203M490 203L491 204L490 203M12 204L13 205L12 204M22 204L23 205L22 204M489 204L490 205L489 204M504 204L505 205L504 204M512 204L513 205L512 204M107 205L108 206L107 205M580 205L581 206L580 205M586 205L587 206L586 205M592.667 205.333L593.333 205.667L592.667 205.333M507 206L508 207L507 206M578 206L579 207L578 206M585 206L586 207L585 206M589 206L590 207L589 206M17 207L18 208L17 207M60 207L61 208L60 207M87 207L88 208L87 207M539 207L540 208L539 207M559 207L560 208L559 207M564 207L565 208L564 207M579 207L580 208L579 207M584 207L585 208L584 207M596 207L597 208L596 207M18 208L19 209L18 208M134 208L135 209L134 208M567 208L568 209L567 208M597 208L598 209L597 208M606 208L607 209L606 208M61 209L62 210L61 209M102 209L103 210L102 209M484 209L485 210L484 209M542 209L543 210L542 209M551 209L552 210L551 209M583 209L585 211L583 209M598 209L599 210L598 209M607 209L608 210L607 209M55 210L56 211L55 210M133 210L134 211L133 210z"
     id="path94" />
  <path
     style="fill:#010101; stroke:none;"
     d="M583 210L584 211L583 210z"
     id="path96" />
  <path
     style="fill:#bec0c2; stroke:none;"
     d="M608 210L609 211L608 210M19 211L20 212L19 211M62 211L63 212L62 211M85 211L86 212L85 211M543 211L544 212L543 211M546 211L547 212L546 211M609 211L610 212L609 211M56 212L57 213L56 212M63 212L64 213L63 212M571 212L572 213L571 212M5 213L6 214L5 213M64 213L65 214L64 213M111 213L112 214L111 213M603 213L604 214L603 213M18 214L19 215L18 214M57 214L58 215L57 214M65 214L66 215L65 214M82 214L83 215L82 214M112 214L113 215L112 214M572 214L573 215L572 214M604 214L605 215L604 214M3 215L4 216L3 215M58 215L59 216L58 215M66 215L67 216L66 215M81 215L82 216L81 215M105 215L106 216L105 215M128 215L129 216L128 215M584 215L585 216L584 215M605 215L606 216L605 215M2 216L3 217L2 216M9 216L10 217L9 216M16 216L17 217L16 216M68 216L69 217L68 216M79 216L80 217L79 216M87 216L88 217L87 216M106 216L107 217L106 216M126 216L127 217L126 216M160 216L161 217L160 216M612 216L613 217L612 216M12.6667 217.333L13.3333 217.667L12.6667 217.333M23 217L24 218L23 217M36 217L37 218L36 217M86 217L87 218L86 217M107 217L108 218L107 217M119 217L120 218L119 217M123 217L124 218L123 217M162 217L163 218L162 217M61 218L62 219L61 218M85 218L86 219L85 218M108 218L109 219L108 218M578 218L579 219L578 218M62 219L63 220L62 219M84 219L85 220L84 219M131 219L132 220L131 219M577 219L578 220L577 219M610 219L611 220L610 219M37 220L38 221L37 220M111 220L112 221L111 220M155 220L156 221L155 220M575 220L576 221L575 220M611 220L612 221L611 220M19 221L20 222L19 221M113 221L114 222L113 221M128 221L129 222L128 221M156 221L157 222L156 221M9 222L10 223L9 222M39 222L40 223L39 222M47 222L48 223L47 222M69 222L70 223L69 222M116 222L117 223L116 222M125 222L126 223L125 222M165 222L166 223L165 222z"
     id="path98" />
  <path
     id="path100"
     style="fill:#9d0d15; stroke:none;"
     d="M 457.38867 230.69727 C 455.85353 230.76344 454.22305 231.54938 452.70117 233.30469 C 448.85218 237.74468 448.047 245.40101 448 251 L 439 250 C 438.174 255.40399 442.698 254.985 447 255 C 445.996 262.94499 442.84101 280.278 451 285 C 450.913 274.48901 443.13302 253.175 460 254 L 461 250 L 451 250 C 452.869 243.36501 453.75301 237.797 460 234 L 464 238 C 463.6865 233.88325 460.76599 230.55169 457.38867 230.69727 z M 395 232 L 389 243 C 393.918 240.886 398.092 237.71499 397 232 L 395 232 z M 613 232 C 613 241.50099 610.26338 256.00326 613.35938 264.90625 C 615.46937 270.97624 624.8953 272.34531 629.0293 267.57031 C 632.67529 263.35932 634.56484 242.88409 625.96484 242.62109 C 621.27685 242.47809 618.614 250.136 616 253 C 617.608 247.56101 619.51499 234.162 613 232 z M 427 234 C 424.58 242.18599 423.56042 256.57448 425.48242 264.98047 C 427.49942 273.80246 436.615 266.877 439 262 L 438 261 L 429 266 L 429 234 L 427 234 z M 491 234 C 488.622 242.04499 487.04936 257.72441 489.31836 265.94141 C 491.56736 274.0874 501.029 266.031 503 262 L 502 261 L 493 266 L 493 234 L 491 234 z M 579 234 C 575.784 240.03099 573.92035 261.75797 578.02734 267.66797 C 581.91734 273.26496 589.317 265.065 590 261 L 580 266 C 580 257.85001 584.59899 240.15899 579 234 z M 506 237 L 506 248 L 501 248 L 506 252 C 505.166 262.95399 507.69001 273.61599 521 268 L 521 266 L 520 265 C 509.81101 266.8 509.001 260.63699 509 252 C 513.476 251.808 519.409 252 522 248 L 509 248 L 508 237 L 506 237 z M 383 241 L 369 264 C 367.141 256.15501 363.49499 244.436 355 242 L 369 271 L 371 271 C 373.934 264.35601 391.19999 246.93699 383 241 z M 547.88477 242.50391 C 543.49718 242.47436 539.7095 250.42737 538 250 C 537.571 255.43799 534.77213 263.91357 537.95312 268.85156 C 542.79712 276.36955 552.014 269.37399 553 263 C 549.441 263.593 548.166 266.945 545 268 C 541.476 269.175 538.274 264.164 540 261 C 542.069 257.207 559.27799 252.27799 551 244 C 549.94175 242.94175 548.89729 242.51073 547.88477 242.50391 z M 473.64062 243.06055 C 470.33325 243.21467 467.09278 244.62738 465.80078 247.10938 C 463.41178 251.69937 460.42452 261.83557 462.60352 266.85156 C 465.96651 274.59255 474.258 263.357 476 260 L 477 260 C 477.014 264.893 476.67001 270.474 483 269 L 480 265 C 481.002 261.297 483.7909 249.69054 481.87891 246.56055 C 480.32141 244.01105 476.948 242.90642 473.64062 243.06055 z M 602.94531 243.66211 C 598.36332 243.19711 596.751 248.711 593 250 C 592.954 255.50099 590.49419 262.66263 592.74219 267.89062 C 596.38018 276.35062 606.897 269.90299 609 264 L 608 263 C 600.92601 265.969 594.034 269.30999 596 258 C 603.48799 258.414 612.2903 244.61111 602.94531 243.66211 z M 646.94531 243.66211 C 642.36332 243.19711 640.751 248.711 637 250 C 636.954 255.53399 634.11069 263.75249 637.17969 268.77148 C 641.86068 276.42648 651.724 269.18799 653 263 C 645.36501 264.98 638.593 270.27799 640 258 C 647.48799 258.414 656.2903 244.61111 646.94531 243.66211 z M 415.94531 243.71289 C 411.45332 243.37989 409.722 248.733 406 250 C 405.953 255.68099 403.22236 263.57049 406.31836 268.77148 C 410.89835 276.46648 420.74 269.10999 422 263 C 414.52401 264.963 407.604 270.17699 409 258 C 416.72799 258.427 425.1703 244.39589 415.94531 243.71289 z M 391 246 C 390.946 252.55299 388.40136 260.43457 390.31836 266.85156 C 392.67136 274.73055 402.442 264.311 404 261 L 403 260 L 393 265 L 395 246 L 391 246 z M 557 246 L 558 271 L 562 271 C 562.108 258.13101 569.96201 256.25499 576 247 C 569.35601 247.197 565.082 250.10801 562 256 C 560.763 251.826 561.694 247.558 557 246 z M 474.76758 246.66992 C 475.77536 246.71527 476.5937 247.69569 477.00195 250.14844 C 477.92795 255.70643 469.175 263.519 465 266 C 465.379 262.98 465.75952 259.96004 466.47852 256.99805 C 467.01027 254.8118 471.74424 246.53389 474.76758 246.66992 z M 416 247 C 416.495 250.592 413.875 252.243 411 254 L 416 247 z M 547 247 C 548.046 250.865 545.239 252.493 542 254 L 547 247 z M 603 247 C 603.49 250.547 601.105 251.885 598 253 L 603 247 z M 625 247 C 631.24999 253.58699 629.88799 263.951 621 267 C 616.384 260.33201 620.331 252.78799 625 247 z M 647 247 C 647.49 250.547 645.105 251.885 642 253 L 647 247 z " />
  <path
     style="fill:#9d0d15; stroke:none;"
     d="M657 247C657 253.086 654.117 267.716 661 270L672 252L673 252C673.336 256.254 673.425 263.058 676.14 266.552C680.844 272.606 687.15 263.211 688 259L679 265C678.173 260.991 678.026 250.48 674.475 248.083C669.526 244.741 663.15 258.655 662 262C660.491 256.894 662.987 248.987 657 247z"
     id="path104" />
  <path
     style="fill:#010101; stroke:none;"
     d="M616 255L617 256L616 255M660 262L661 263L660 262z"
     id="path106" />
</svg>
